<?xml version="1.0" encoding="UTF-8"?>
<svg id="Layer_1" xmlns="http://www.w3.org/2000/svg" viewBox="0 0 88 88" >
    <defs>
        <style>.cls-1{fill:#fff;stroke-width:0px;}</style>
    </defs>
    <path class="cls-1" d="M44,0C19.7,0,0,19.7,0,44s19.7,44,44,44,44-19.7,44-44S68.3,0,44,0ZM68.12,48.87l-16.31,16.31c-2.56,2.56-6.75,2.56-9.31,0-2.56-2.56-2.56-6.75,0-9.31l4.96-4.96h-22.9c-3.62,0-6.58-2.96-6.58-6.58s2.96-6.58,6.58-6.58h23.58l-5.64-5.64c-2.56-2.56-2.56-6.75,0-9.31,2.56-2.56,6.75-2.56,9.31,0l16.31,16.31c1.34,1.34,1.96,3.11,1.9,4.87.06,1.76-.56,3.54-1.9,4.87Z"/>
</svg>
