<?xml version="1.0" encoding="UTF-8"?>
<svg id="Layer_1" xmlns="http://www.w3.org/2000/svg" version="1.1" viewBox="0 0 200 38.5">
  <!-- Generator: Adobe Illustrator 29.2.0, SVG Export Plug-In . SVG Version: 2.1.0 Build 108)  -->
  <defs>
    <style>
      .st0 {
        fill: #f7941d;
      }
    </style>
  </defs>
  <polygon class="st0" points="24.7 15.1 39.4 15 27.6 23.7 32.3 37.6 20.3 29.1 8.5 37.8 12.9 23.8 1 15.3 15.7 15.2 20 1.2 24.7 15.1"/>
  <polygon class="st0" points="64.7 15.1 79.4 15 67.6 23.7 72.3 37.6 60.3 29.1 48.5 37.8 52.9 23.8 41 15.3 55.7 15.2 60 1.2 64.7 15.1"/>
  <polygon class="st0" points="104.7 15.1 119.4 15 107.6 23.7 112.3 37.6 100.3 29.1 88.5 37.8 92.9 23.8 81 15.3 95.7 15.2 100 1.2 104.7 15.1"/>
  <polygon class="st0" points="144.7 15.1 159.4 15 147.6 23.7 152.3 37.6 140.3 29.1 128.5 37.8 132.9 23.8 121 15.3 135.7 15.2 140 1.2 144.7 15.1"/>
  <polygon class="st0" points="184.7 15.1 199.4 15 187.6 23.7 192.3 37.6 180.3 29.1 168.5 37.8 172.9 23.8 161 15.3 175.7 15.2 180 1.2 184.7 15.1"/>
</svg>