<?xml version="1.0" encoding="UTF-8"?>
<svg xmlns="http://www.w3.org/2000/svg" version="1.1" viewBox="0 0 298.6 61.6">
  <!-- Generator: Adobe Illustrator 29.2.1, SVG Export Plug-In . SVG Version: 2.1.0 Build 116)  -->
  <defs>
    <style>
      .st0 {
        fill: none;
        stroke: #fff;
      }

      .st0, .st1 {
        stroke-miterlimit: 10;
      }

      .st1 {
        fill: #231f20;
        stroke: #231f20;
      }

      .st2 {
        fill: #fff;
      }

      .st3 {
        display: none;
      }
    </style>
  </defs>
  <g id="Layer_1" class="st3">
    <rect class="st1" x="-6.7" y="-27" width="321.6" height="117.5"/>
  </g>
  <g id="Layer_2">
    <g>
      <path class="st2" d="M21.3,25.9c0-2.2-1.3-3.2-4.3-4.4l-1.3-.5c-3.6-1.4-6-3.4-6-7s3.4-6.4,7.8-6.4,4.2.7,5.7,1.8l-.2,4.5h-2.1l-1-5.2,2.2,1.1v1.7c-1.7-1.6-3-2.2-4.8-2.2-2.7,0-4.7,1.3-4.7,3.9s1.4,3.4,3.9,4.4l1.4.5c4.6,1.8,6.3,3.8,6.3,7s-3.4,6.6-8.2,6.6-5.1-.8-6.8-1.8l.2-4.9h2.1l.9,5.3-2.3-1v-1.7c2.1,1.5,3.3,2.2,5.7,2.2s5.4-1.5,5.4-4.2Z"/>
      <path class="st2" d="M31.5,25.2c0,3,.9,4.1,2.7,4.1s3.5-.9,5.2-2.6h.8v1.8h-1.8l1.2-.5c-2,2.7-4.3,3.8-6.6,3.8s-4.5-1.7-4.5-6.2v-9.1c.1,0,.9.7.9.7l-3.2-.7v-1.2l5.1-.5.4.3-.2,4.8v5.3ZM39.6,31.6l-.5-4v-11.1c.1,0,.9.7.9.7l-3.2-.7v-1.2l5-.5.4.3v4.8c-.1,0-.1,10.4-.1,10.4l-.9-.9,3.3.7v1.2l-4.8.3Z"/>
      <path class="st2" d="M60,14.9v1.2l-10.9,15.2v-1.5h9.8l-1.6,1.5,1.4-5.6h1.8l-.3,5.6h-13.5v-1.2l10.9-15.2v1.5h-9l1.3-1.5-1.3,5.3h-1.8c0-.1.3-5.3.3-5.3h12.9Z"/>
      <path class="st2" d="M68.7,22.2c1.5-.5,3.6-1.1,5.4-1.5v1.3c-1.6.3-3.6,1-4.6,1.4-3,1.2-3.4,2.5-3.4,3.5,0,1.8,1.2,2.6,2.8,2.6s1.9-.4,4-2l.7-.5.5.7-1,1c-2.1,2.1-3.2,3-5.4,3s-4.6-1.5-4.6-4.3,1.1-3.5,5.7-5.2ZM72.6,28.2v-7.9c0-3.4-.9-4.2-3.2-4.2s-1.8.1-3.1.6l1.4-1.1-.9,2.9c-.3,1.1-.9,1.7-1.8,1.7s-1.5-.5-1.6-1.4c.6-2.6,3.2-4.3,6.7-4.3s5.3,1.6,5.3,6v7.4c0,1.5.5,2,1.3,2s.9-.3,1.3-.8l.7.8c-.8,1.3-1.8,1.8-3,1.8-1.9,0-3.2-1.4-3.2-3.5Z"/>
      <path class="st2" d="M82.8,31.3c0-1.6.1-5.1.1-7.3v-1.6c0-1.9,0-3-.1-4.3l-2.7-.3v-1.2l4.8-2.1.5.3.4,4v5.2c0,2.1,0,5.7.1,7.3h-3.1ZM88.3,30.1v1.2h-8v-1.2l3.8-.7h.8l3.4.7ZM96.4,20.8v3.2c0,2.2,0,5.7.1,7.3h-3.1c0-1.6.1-5,.1-7.3v-2.9c0-3.2-.8-4.2-2.8-4.2s-3.1.7-5.1,2.4h-.8v-1.6h1.8l-1.5.6c1.7-2.3,4.4-3.9,6.8-3.9s4.4,1.8,4.4,6.4ZM95.4,29.4l3.5.7v1.2h-8v-1.2l3.8-.7h.8Z"/>
      <path class="st2" d="M103.9,31.3c0-1.6.1-5.1.1-7.3v-1.6c0-1.9,0-3-.1-4.3l-2.7-.3v-1.2l4.8-2.1.5.3.4,4v5.2c0,2.1,0,5.7.1,7.3h-3.1ZM109.4,30.1v1.2h-8v-1.2l3.8-.7h.8l3.4.7ZM117.4,20.8v3.2c0,2.2,0,5.7.1,7.3h-3.1c0-1.6.1-5,.1-7.3v-2.9c0-3.2-.8-4.2-2.8-4.2s-3.1.7-5.1,2.4h-.8v-1.6h1.8l-1.5.6c1.7-2.3,4.4-3.9,6.8-3.9s4.4,1.8,4.4,6.4ZM116.4,29.4l3.5.7v1.2h-8v-1.2l3.8-.7h.8Z"/>
      <path class="st2" d="M128.2,22.2c1.5-.5,3.6-1.1,5.4-1.5v1.3c-1.6.3-3.6,1-4.6,1.4-3,1.2-3.4,2.5-3.4,3.5,0,1.8,1.2,2.6,2.8,2.6s1.9-.4,4-2l.7-.5.5.7-1,1c-2.1,2.1-3.2,3-5.4,3s-4.6-1.5-4.6-4.3,1.1-3.5,5.7-5.2ZM132.1,28.2v-7.9c0-3.4-.9-4.2-3.2-4.2s-1.8.1-3.1.6l1.4-1.1-.9,2.9c-.3,1.1-.9,1.7-1.8,1.7s-1.5-.5-1.6-1.4c.6-2.6,3.2-4.3,6.7-4.3s5.3,1.6,5.3,6v7.4c0,1.5.5,2,1.3,2s.9-.3,1.3-.8l.7.8c-.8,1.3-1.8,1.8-3,1.8-1.9,0-3.2-1.4-3.2-3.5Z"/>
      <path class="st2" d="M148.3,9.6v-1.4h4.9v1.9h-.4l-4.5-.5ZM153.2,29.4v1.9h-4.9v-1.4l4.5-.5h.4ZM151.5,18.9c0-3.6,0-7.2-.1-10.7h3.5c-.1,3.5-.1,7.1-.1,10.7v1.3c0,4,0,7.6.1,11.1h-3.5c.1-3.5.1-7.1.1-11.1v-1.3ZM153.2,29.7h4.4c5.3,0,8.3-3.6,8.3-9.9s-2.9-10-8-10h-4.7v-1.6h5.3c6.6,0,11.2,4.1,11.2,11.6s-5.1,11.5-11.9,11.5h-4.6v-1.6Z"/>
      <path class="st2" d="M187.3,21.1c0,.8-.1,1.5-.2,1.9h-12.8v-1.5h8.1c1.7,0,2-.8,2-1.8,0-2-1.6-3.7-3.8-3.7s-4.7,1.8-4.7,6.8,2.2,6.7,5.6,6.7,3.6-1,4.8-2.4l.8.7c-1.3,2.5-3.5,4-6.6,4-4.7,0-7.7-3.2-7.7-8.5s3.6-8.8,7.9-8.8,6.4,2.5,6.4,6.6Z"/>
      <path class="st2" d="M193.1,24.1v-1.6c0-1.9,0-3-.1-4.3l-2.7-.3v-1.2l4.8-2.1.5.3.4,4.3v4.9c0,2.1,0,5.7.1,7.3h-3.1c0-1.6.1-5.1.1-7.3ZM190.5,30.1l3.8-.7h.9l3.8.7v1.2h-8.4v-1.2ZM194.5,19.4h2l-.8.3c1.1-3.3,3.2-5.2,5.2-5.2s2.1.5,2.5,1.3c0,1.6-.6,2.5-2,2.5s-1.5-.3-2.1-.9l-.9-.8,1.7-.3c-2.1,1.1-3.3,2.8-4.1,5.5h-1.4v-2.3Z"/>
      <path class="st2" d="M219.3,21.1c0,.8-.1,1.5-.2,1.9h-12.8v-1.5h8.1c1.7,0,2-.8,2-1.8,0-2-1.6-3.7-3.8-3.7s-4.7,1.8-4.7,6.8,2.2,6.7,5.6,6.7,3.6-1,4.8-2.4l.8.7c-1.3,2.5-3.5,4-6.6,4-4.7,0-7.7-3.2-7.7-8.5s3.6-8.8,7.9-8.8,6.4,2.5,6.4,6.6Z"/>
      <path class="st2" d="M224.1,16.8l-3.4-.6v-1.3h7.9v1.3l-3.7.6h-.8ZM235.2,14.9l5,13.4h-.8s4.1-13.4,4.1-13.4h2l-5.7,16.6h-1.3c-3.3-8.5-4.2-11.3-5.1-14.1h1.3s-5.2,14.1-5.2,14.1h-1.3l-6.2-16.6h3.3l4.5,13.4h-.8s4.9-13.4,4.9-13.4h1.2ZM230.8,16.2v-1.3h7.7v1.3l-3.3.6h-.7l-3.6-.6ZM243.7,16.8l-3.2-.6v-1.3h6.3v1.3l-2.4.6h-.7Z"/>
      <path class="st2" d="M251,31.3c0-1.6.1-5.1.1-7.3v-1.6c0-1.9,0-3-.1-4.4l-2.8-.3v-1.2l5.3-2.1.5.3v4.7c-.1,0-.1,4.6-.1,4.6,0,2.1,0,5.7.1,7.3h-3.1ZM256.5,30.1v1.2h-8v-1.2l3.8-.7h.8l3.5.7ZM250.2,8.4c0-1.3,1-2.2,2.3-2.2s2.3.9,2.3,2.2-1,2.2-2.3,2.2-2.3-.9-2.3-2.2Z"/>
      <path class="st2" d="M262.1,22.8c0,4.3,2.3,6.7,5.5,6.7s3.7-1,4.8-2.7l.9.5c-1,2.9-3.2,4.4-6.4,4.4-4.7,0-7.8-3.3-7.8-8.6s3.8-8.7,8-8.7,5.7,1.9,6.1,4.5c-.2.9-.7,1.3-1.6,1.3s-1.6-.7-1.9-1.7l-.8-3,1.6,1.3c-1.2-.6-2.3-.9-3.3-.9-2.9,0-5.1,2.4-5.1,6.8Z"/>
      <path class="st2" d="M288.9,14.9v1.2l-10.9,15.2v-1.5h9.8l-1.6,1.5,1.4-5.6h1.8l-.3,5.6h-13.5v-1.2l10.9-15.2v1.5h-9l1.3-1.5-1.3,5.3h-1.8c0-.1.3-5.3.3-5.3h12.9Z"/>
    </g>
    <g>
      <path class="st2" d="M17.9,47.9c0,3-2,4.8-4.2,4.8s-4.2-1.7-4.2-4.8,2.1-4.8,4.2-4.8,4.2,1.7,4.2,4.8ZM13.7,51.9c1.9,0,2.7-2,2.7-4.1s-.8-4.1-2.7-4.1-2.7,2-2.7,4.1.8,4.1,2.7,4.1Z"/>
      <path class="st2" d="M18.9,43.9v-.6h1.9v.8h-.1l-1.8-.2ZM21,51.7l1.8.2v.6h-3.8v-.6l1.8-.2h.3ZM20.2,47.5c0-1.4,0-2.8,0-4.2h1.4c0,1.4,0,2.8,0,4.2v.8c0,1.4,0,2.7,0,4.1h-1.4c0-1.4,0-2.8,0-4.2v-.7ZM22.2,48.8h-1.4v-.6h1.5c1.6,0,2.3-.9,2.3-2.2s-.7-2.1-2.3-2.1h-1.5v-.6h1.7c2.3,0,3.4,1.1,3.4,2.7s-1,2.8-3.8,2.8Z"/>
      <path class="st2" d="M34.1,51.1v.7l-.8.2.3-2h.8v2c-.9.5-1.8.7-2.8.7-2.7,0-4.6-2-4.6-4.8s1.9-4.8,4.6-4.8,1.7.1,2.6.7v2c0,0-.8,0-.8,0l-.3-2,.8.2v.8c-.8-.7-1.5-.9-2.2-.9-1.8,0-3.3,1.4-3.3,4.1s1.3,4.1,3.2,4.1,1.6-.2,2.4-.9Z"/>
      <path class="st2" d="M42.8,51.1v.7l-.8.2.3-2h.8v2c-.9.5-1.8.7-2.8.7-2.7,0-4.6-2-4.6-4.8s1.9-4.8,4.6-4.8,1.7.1,2.6.7v2c0,0-.8,0-.8,0l-.3-2,.8.2v.8c-.8-.7-1.5-.9-2.2-.9-1.8,0-3.3,1.4-3.3,4.1s1.3,4.1,3.2,4.1,1.6-.2,2.4-.9Z"/>
      <path class="st2" d="M47.6,43.9v-.6h1.9v.8h-.1l-1.8-.2ZM49.5,51.7v.8h-1.9v-.6l1.8-.2h.1ZM48.9,47.5c0-1.4,0-2.8,0-4.2h1.4c0,1.4,0,2.8,0,4.2v.5c0,1.6,0,3,0,4.4h-1.4c0-1.4,0-2.8,0-4.4v-.5ZM49.5,51.8h1.7c2.1,0,3.3-1.4,3.3-3.9s-1.2-3.9-3.1-3.9h-1.9v-.6h2.1c2.6,0,4.4,1.6,4.4,4.6s-2,4.5-4.7,4.5h-1.8v-.6Z"/>
      <path class="st2" d="M58.3,52.4c0-.6,0-2,0-2.9v-.6c0-.7,0-1.2,0-1.7h-1.1v-.6l2.1-.8h.2c0,.1,0,2,0,2v1.8c0,.8,0,2.2,0,2.9h-1.2ZM60.4,51.9v.5h-3.2v-.5l1.5-.3h.3l1.4.3ZM57.9,43.4c0-.5.4-.9.9-.9s.9.3.9.9-.4.9-.9.9-.9-.4-.9-.9Z"/>
      <path class="st2" d="M64.8,55.2v.5h-3.5v-.5l1.5-.3h.3l1.6.3ZM62.4,48.9c0-.7,0-1.2,0-1.7h-1.1v-.6l1.9-.8h.2c0,.1.1,1.3.1,1.3h0v4.3h0v1.4c0,.9,0,1.9,0,2.9h-1.2c0-1,0-1.9,0-2.9v-3.9ZM65.2,46.6c-.5,0-1.2.3-2.1,1.2v-.2c.7-1.2,1.5-1.7,2.5-1.7,1.4,0,2.6,1.3,2.6,3.4s-1.2,3.4-2.8,3.4-1.7-.4-2.4-1.8v-.2c.8.9,1.5,1.3,2.1,1.3,1,0,1.8-.8,1.8-2.5s-.7-2.7-1.7-2.7Z"/>
      <path class="st2" d="M71.1,42.4h.2c0,.1,0,2,0,2v5.2c0,1,0,1.9,0,2.9h-1.2c0-1,0-1.9,0-2.9v-6h-1.1v-.6l2.1-.6ZM72.4,51.9v.5h-3.4v-.5l1.5-.3h.3l1.5.3Z"/>
      <path class="st2" d="M73.9,51.6c0-.5.4-1,1-1s1,.4,1,1-.4,1-1,1-1-.4-1-1Z"/>
      <path class="st2" d="M80.9,43.9v-.6h1.9v.8h-.1l-1.8-.2ZM83,51.7l1.8.2v.6h-3.8v-.6l1.8-.2h.3ZM82.2,47.5c0-1.4,0-2.8,0-4.2h1.4c0,1.4,0,2.8,0,4.2v.8c0,1.4,0,2.7,0,4.1h-1.4c0-1.4,0-2.8,0-4.2v-.7ZM84.2,48.8h-1.4v-.6h1.5c1.6,0,2.3-.9,2.3-2.2s-.7-2.1-2.3-2.1h-1.5v-.6h1.7c2.3,0,3.4,1.1,3.4,2.7s-1,2.8-3.8,2.8Z"/>
      <path class="st2" d="M89.1,52.1v-1.5s.7,0,.7,0l.4,1.6-.7-.3v-.5c.5.4,1,.6,1.7.6,1,0,1.5-.4,1.5-1s-.4-.9-1.3-1.2l-.6-.2c-1-.4-1.6-.9-1.6-1.8s.8-1.9,2.4-1.9,1.3.2,1.9.6v1.4h-.8l-.3-1.4.5.2v.4c-.4-.3-.9-.5-1.4-.5-.8,0-1.3.4-1.3.9s.3.8,1.3,1.2l.4.2c1.4.5,1.9,1.1,1.9,2s-.9,1.9-2.6,1.9-1.4-.2-2-.5Z"/>
      <path class="st2" d="M94.4,54.9c0-.4.5-.6.9-.6s.6.1,1,.5l.4.4-.5.3-.4-.3c.9-.4,1.4-1.4,1.8-2.3l.4-1.2,2.1-5.7h.7l-2.4,6.4c-.9,2.4-1.7,3.4-2.8,3.4s-1.2-.4-1.2-.9ZM95.8,46.7l-1.3-.2v-.5h3.3v.5l-1.6.2h-.3ZM97.8,53.1l-2.9-7.2h1.3l2.1,5.7-.6,1.4ZM100.1,46.7l-1.4-.2v-.5h2.7v.5l-1,.2h-.3Z"/>
      <path class="st2" d="M102.9,49.1c0,1.7.9,2.6,2.2,2.6s1.5-.4,1.9-1l.3.2c-.4,1.1-1.3,1.7-2.5,1.7-1.9,0-3-1.3-3-3.4s1.5-3.4,3.1-3.4,2.2.8,2.4,1.8c0,.3-.3.5-.6.5s-.6-.3-.7-.6l-.3-1.2.6.5c-.5-.2-.9-.3-1.3-.3-1.2,0-2,.9-2,2.7Z"/>
      <path class="st2" d="M109.2,43.6h-1.1v-.6l2.1-.6h.2c0,.1,0,2,0,2v3s0,2.1,0,2.1c0,.8,0,2.2,0,2.9h-1.2c0-.6,0-2,0-2.9v-6ZM111.3,51.9v.5h-3.1v-.5l1.5-.3h.3l1.4.3ZM114.5,48.3v1.3c0,.9,0,2.2,0,2.9h-1.2c0-.6,0-2,0-2.9v-1.2c0-1.2-.3-1.6-1.1-1.6s-1.2.3-2,.9h-.3v-.6h.7l-.6.3c.7-.9,1.7-1.5,2.7-1.5s1.7.7,1.7,2.5ZM114.2,51.7l1.4.3v.5h-3.1v-.5l1.5-.3h.3Z"/>
      <path class="st2" d="M116.3,55.5l-.2-.5c1.1-.5,1.9-1.3,2.1-2.6v.6c0,0-.6-.5-.6-.5-.4-.3-.5-.6-.5-1,0-.5.3-.9.8-.9s.5,0,.9.4c0,.3.2.7.2,1,0,1.6-1.3,2.9-2.6,3.4Z"/>
      <path class="st2" d="M124.1,43.9v-.6h1.9v.8h-.1l-1.8-.2ZM126.2,51.7l1.8.2v.6h-3.8v-.6l1.8-.2h.3ZM125.4,47.5c0-1.4,0-2.8,0-4.2h1.4c0,1.4,0,2.7,0,4.3v.4c0,1.5,0,2.9,0,4.3h-1.4c0-1.4,0-2.8,0-4.2v-.7ZM126,47.6h1.7c1.5,0,2.1-.8,2.1-1.9s-.6-1.8-2-1.8h-1.8v-.6h1.9c2.1,0,3.3.9,3.3,2.4s-.9,2.2-2.7,2.3h0c1,0,1.6.4,2,1.7l.6,2.2-.5-.3,1.4.2v.6c-.3,0-.6.1-1,.1-.9,0-1.2-.2-1.4-.9l-.5-2.2c-.3-1.1-.8-1.3-1.9-1.3h-1.3v-.6Z"/>
      <path class="st2" d="M138.6,48.4c0,.3,0,.6,0,.8h-5v-.6h3.2c.7,0,.8-.3.8-.7,0-.8-.6-1.5-1.5-1.5s-1.8.7-1.8,2.7.9,2.6,2.2,2.6,1.4-.4,1.9-1l.3.3c-.5,1-1.4,1.6-2.6,1.6-1.8,0-3-1.3-3-3.3s1.4-3.5,3.1-3.5,2.5,1,2.5,2.6Z"/>
      <path class="st2" d="M145,53.7c0-.6-.4-1.1-1.4-1.1h-1.6c-.3,0-.5,0-.7,0h0c-.7-.2-1-.6-1-1.1s.3-1,1.2-1.8l.3.2c-.4.4-.6.7-.6,1.1s.2.6.8.6h1.8c1.5,0,2.2.6,2.2,1.8s-1.1,2.3-3.4,2.3-2.8-.7-2.8-1.7.4-1.2,1.8-1.7h0c-.5.6-.7,1-.7,1.5,0,.9.7,1.2,1.8,1.2s2.3-.6,2.3-1.4ZM142.6,45.8c1.4,0,2.4.7,2.4,2.2s-1.1,2.2-2.5,2.2-2.5-.7-2.5-2.2,1.1-2.2,2.5-2.2ZM141.2,48c0,1,.5,1.7,1.3,1.7s1.4-.7,1.4-1.7-.5-1.6-1.3-1.6-1.4.7-1.4,1.7ZM145.9,45.8h.2v1h-2v-.4l1.8-.6Z"/>
      <path class="st2" d="M148,52.4c0-.6,0-2,0-2.9v-.6c0-.7,0-1.2,0-1.7h-1.1v-.6l2.1-.8h.2c0,.1,0,2,0,2v1.8c0,.8,0,2.2,0,2.9h-1.2ZM150.1,51.9v.5h-3.2v-.5l1.5-.3h.3l1.4.3ZM147.6,43.4c0-.5.4-.9.9-.9s.9.3.9.9-.4.9-.9.9-.9-.4-.9-.9Z"/>
      <path class="st2" d="M151.3,52.1v-1.5s.7,0,.7,0l.4,1.6-.7-.3v-.5c.5.4,1,.6,1.7.6,1,0,1.5-.4,1.5-1s-.4-.9-1.3-1.2l-.6-.2c-1-.4-1.6-.9-1.6-1.8s.8-1.9,2.4-1.9,1.3.2,1.9.6v1.4h-.8l-.3-1.4.5.2v.4c-.4-.3-.9-.5-1.4-.5-.8,0-1.3.4-1.3.9s.3.8,1.3,1.2l.4.2c1.4.5,1.9,1.1,1.9,2s-.9,1.9-2.6,1.9-1.4-.2-2-.5Z"/>
      <path class="st2" d="M159.8,51.9c.3,0,.6-.1.9-.4l.3.4c-.3.4-.9.7-1.6.7s-1.5-.5-1.5-1.6,0-.6,0-1.2v-3.2h-1.1v-.6l1.7-.2-.6.5.4-2.2h.8v2.4c-.1,0-.1,4.4-.1,4.4,0,.7.3,1,.8,1ZM160.9,46v.7h-2.4v-.7h2.4Z"/>
      <path class="st2" d="M167.4,48.4c0,.3,0,.6,0,.8h-5v-.6h3.2c.7,0,.8-.3.8-.7,0-.8-.6-1.5-1.5-1.5s-1.8.7-1.8,2.7.9,2.6,2.2,2.6,1.4-.4,1.9-1l.3.3c-.5,1-1.4,1.6-2.6,1.6-1.8,0-3-1.3-3-3.3s1.4-3.5,3.1-3.5,2.5,1,2.5,2.6Z"/>
      <path class="st2" d="M169.8,49.6v-.6c0-.7,0-1.2,0-1.7h-1.1v-.6l1.9-.8h.2c0,.1.2,1.8.2,1.8v1.9c0,.8,0,2.2,0,2.9h-1.2c0-.6,0-2,0-2.9ZM168.8,51.9l1.5-.3h.3l1.5.3v.5h-3.3v-.5ZM170.4,47.7h.8-.3c.4-1.2,1.3-1.9,2.1-1.9s.8.2,1,.5c0,.6-.3,1-.8,1s-.6-.1-.8-.3l-.4-.3h.7c-.8.3-1.3,1-1.6,2h-.5v-.9Z"/>
      <path class="st2" d="M180.2,48.4c0,.3,0,.6,0,.8h-5v-.6h3.2c.7,0,.8-.3.8-.7,0-.8-.6-1.5-1.5-1.5s-1.8.7-1.8,2.7.9,2.6,2.2,2.6,1.4-.4,1.9-1l.3.3c-.5,1-1.4,1.6-2.6,1.6-1.8,0-3-1.3-3-3.3s1.4-3.5,3.1-3.5,2.5,1,2.5,2.6Z"/>
      <path class="st2" d="M184.7,51.8c.7,0,1.2-.3,1.8-1.1v.4c-.4,1-1,1.5-2.1,1.5-1.6,0-2.8-1.4-2.8-3.3s1.2-3.5,2.9-3.5,1.5.3,2.2,1.4v.3c-.9-.8-1.4-1-2-1-1,0-1.9.8-1.9,2.7s.8,2.6,1.9,2.6ZM188.4,51.9v.5h-2.1c0,.1-.1-1.2-.1-1.2v-4.2s0-3.4,0-3.4h-1.2v-.6l2.1-.6h.2c0,.1,0,2,0,2v8l-.3-.7,1.4.2Z"/>
      <path class="st2" d="M192.6,43.9v-.6h1.9v.8h-.1l-1.8-.2ZM194.7,51.7l1.8.2v.6h-3.8v-.6l1.8-.2h.3ZM193.9,47.5c0-1.4,0-2.8,0-4.2h1.4c0,1.4,0,2.8,0,4.2v.8c0,1.4,0,2.7,0,4.1h-1.4c0-1.4,0-2.8,0-4.2v-.7ZM195.9,48.8h-1.4v-.6h1.5c1.6,0,2.3-.9,2.3-2.2s-.7-2.1-2.3-2.1h-1.5v-.6h1.7c2.3,0,3.4,1.1,3.4,2.7s-1,2.8-3.8,2.8Z"/>
      <path class="st2" d="M200.8,52.1v-1.5s.7,0,.7,0l.4,1.6-.7-.3v-.5c.5.4,1,.6,1.7.6,1,0,1.5-.4,1.5-1s-.4-.9-1.3-1.2l-.6-.2c-1-.4-1.6-.9-1.6-1.8s.8-1.9,2.4-1.9,1.3.2,1.9.6v1.4h-.8l-.3-1.4.5.2v.4c-.4-.3-.9-.5-1.4-.5-.8,0-1.3.4-1.3.9s.3.8,1.3,1.2l.4.2c1.4.5,1.9,1.1,1.9,2s-.9,1.9-2.6,1.9-1.4-.2-2-.5Z"/>
      <path class="st2" d="M206.1,54.9c0-.4.5-.6.9-.6s.6.1,1,.5l.4.4-.5.3-.4-.3c.9-.4,1.4-1.4,1.8-2.3l.4-1.2,2.1-5.7h.7l-2.4,6.4c-.9,2.4-1.7,3.4-2.8,3.4s-1.2-.4-1.2-.9ZM207.5,46.7l-1.3-.2v-.5h3.3v.5l-1.6.2h-.3ZM209.5,53.1l-2.9-7.2h1.3l2.1,5.7-.6,1.4ZM211.9,46.7l-1.4-.2v-.5h2.7v.5l-1,.2h-.3Z"/>
      <path class="st2" d="M214.7,49.1c0,1.7.9,2.6,2.2,2.6s1.5-.4,1.9-1l.3.2c-.4,1.1-1.3,1.7-2.5,1.7-1.9,0-3-1.3-3-3.4s1.5-3.4,3.1-3.4,2.2.8,2.4,1.8c0,.3-.3.5-.6.5s-.6-.3-.7-.6l-.3-1.2.6.5c-.5-.2-.9-.3-1.3-.3-1.2,0-2,.9-2,2.7Z"/>
      <path class="st2" d="M221,43.6h-1.1v-.6l2.1-.6h.2c0,.1,0,2,0,2v3s0,2.1,0,2.1c0,.8,0,2.2,0,2.9h-1.2c0-.6,0-2,0-2.9v-6ZM223.1,51.9v.5h-3.1v-.5l1.5-.3h.3l1.4.3ZM226.3,48.3v1.3c0,.9,0,2.2,0,2.9h-1.2c0-.6,0-2,0-2.9v-1.2c0-1.2-.3-1.6-1.1-1.6s-1.2.3-2,.9h-.3v-.6h.7l-.6.3c.7-.9,1.7-1.5,2.7-1.5s1.7.7,1.7,2.5ZM225.9,51.7l1.4.3v.5h-3.1v-.5l1.5-.3h.3Z"/>
      <path class="st2" d="M228.4,49.2c0-2.2,1.5-3.4,3.1-3.4s3.1,1.2,3.1,3.4-1.5,3.4-3.1,3.4-3.1-1.1-3.1-3.4ZM233.3,49.2c0-1.8-.7-2.8-1.8-2.8s-1.8,1-1.8,2.8.6,2.8,1.8,2.8,1.8-.9,1.8-2.8Z"/>
      <path class="st2" d="M238.4,51.9c.3,0,.6-.1.9-.4l.3.4c-.3.4-.9.7-1.6.7s-1.5-.5-1.5-1.6,0-.6,0-1.2v-3.2h-1.1v-.6l1.7-.2-.6.5.4-2.2h.8v2.4c-.1,0-.1,4.4-.1,4.4,0,.7.3,1,.8,1ZM239.5,46v.7h-2.4v-.7h2.4Z"/>
      <path class="st2" d="M241.2,43.6h-1.1v-.6l2.1-.6h.2c0,.1,0,2,0,2v3s0,2.1,0,2.1c0,.8,0,2.2,0,2.9h-1.2c0-.6,0-2,0-2.9v-6ZM243.3,51.9v.5h-3.1v-.5l1.5-.3h.3l1.4.3ZM246.5,48.3v1.3c0,.9,0,2.2,0,2.9h-1.2c0-.6,0-2,0-2.9v-1.2c0-1.2-.3-1.6-1.1-1.6s-1.2.3-2,.9h-.3v-.6h.7l-.6.3c.7-.9,1.7-1.5,2.7-1.5s1.7.7,1.7,2.5ZM246.1,51.7l1.4.3v.5h-3.1v-.5l1.5-.3h.3Z"/>
      <path class="st2" d="M254.3,48.4c0,.3,0,.6,0,.8h-5v-.6h3.2c.7,0,.8-.3.8-.7,0-.8-.6-1.5-1.5-1.5s-1.8.7-1.8,2.7.9,2.6,2.2,2.6,1.4-.4,1.9-1l.3.3c-.5,1-1.4,1.6-2.6,1.6-1.8,0-3-1.3-3-3.3s1.4-3.5,3.1-3.5,2.5,1,2.5,2.6Z"/>
      <path class="st2" d="M256.6,49.6v-.6c0-.7,0-1.2,0-1.7h-1.1v-.6l1.9-.8h.2c0,.1.2,1.8.2,1.8v1.9c0,.8,0,2.2,0,2.9h-1.2c0-.6,0-2,0-2.9ZM255.6,51.9l1.5-.3h.3l1.5.3v.5h-3.3v-.5ZM257.2,47.7h.8-.3c.4-1.2,1.3-1.9,2.1-1.9s.8.2,1,.5c0,.6-.3,1-.8,1s-.6-.1-.8-.3l-.4-.3h.7c-.8.3-1.3,1-1.6,2h-.5v-.9Z"/>
      <path class="st2" d="M263.6,48.9c.6-.2,1.4-.4,2.1-.6v.5c-.6.1-1.4.4-1.8.5-1.2.5-1.3,1-1.3,1.4,0,.7.5,1,1.1,1s.7-.2,1.6-.8l.3-.2.2.3-.4.4c-.8.8-1.3,1.2-2.1,1.2s-1.8-.6-1.8-1.7.4-1.4,2.2-2ZM265.1,51.2v-3.1c0-1.3-.4-1.7-1.3-1.7s-.7,0-1.2.2l.6-.4-.3,1.2c-.1.4-.3.6-.7.6s-.6-.2-.6-.6c.2-1,1.3-1.7,2.6-1.7s2.1.6,2.1,2.4v2.9c0,.6.2.8.5.8s.4-.1.5-.3l.3.3c-.3.5-.7.7-1.2.7-.8,0-1.2-.5-1.3-1.4Z"/>
      <path class="st2" d="M271.5,55.2v.5h-3.5v-.5l1.5-.3h.3l1.6.3ZM269.1,48.9c0-.7,0-1.2,0-1.7h-1.1v-.6l1.9-.8h.2c0,.1.1,1.3.1,1.3h0v4.3h0v1.4c0,.9,0,1.9,0,2.9h-1.2c0-1,0-1.9,0-2.9v-3.9ZM271.9,46.6c-.5,0-1.2.3-2.2,1.2v-.2c.7-1.2,1.5-1.7,2.5-1.7,1.4,0,2.6,1.3,2.6,3.4s-1.2,3.4-2.8,3.4-1.7-.4-2.4-1.8v-.2c.8.9,1.5,1.3,2.1,1.3,1,0,1.8-.8,1.8-2.5s-.7-2.7-1.7-2.7Z"/>
      <path class="st2" d="M277,52.4c0-.6,0-2,0-2.9v-.6c0-.7,0-1.2,0-1.7h-1.1v-.6l2.1-.8h.2c0,.1,0,2,0,2v1.8c0,.8,0,2.2,0,2.9h-1.2ZM279.1,51.9v.5h-3.2v-.5l1.5-.3h.3l1.4.3ZM276.7,43.4c0-.5.4-.9.9-.9s.9.3.9.9-.4.9-.9.9-.9-.4-.9-.9Z"/>
      <path class="st2" d="M280.4,52.1v-1.5s.7,0,.7,0l.4,1.6-.7-.3v-.5c.5.4,1,.6,1.7.6,1,0,1.5-.4,1.5-1s-.4-.9-1.3-1.2l-.6-.2c-1-.4-1.6-.9-1.6-1.8s.8-1.9,2.4-1.9,1.3.2,1.9.6v1.4h-.8l-.3-1.4.5.2v.4c-.4-.3-.9-.5-1.4-.5-.8,0-1.3.4-1.3.9s.3.8,1.3,1.2l.4.2c1.4.5,1.9,1.1,1.9,2s-.9,1.9-2.6,1.9-1.4-.2-2-.5Z"/>
      <path class="st2" d="M288.8,51.9c.3,0,.6-.1.9-.4l.3.4c-.3.4-.9.7-1.6.7s-1.5-.5-1.5-1.6,0-.6,0-1.2v-3.2h-1.1v-.6l1.7-.2-.6.5.4-2.2h.8v2.4c-.1,0-.1,4.4-.1,4.4,0,.7.3,1,.8,1ZM289.9,46v.7h-2.4v-.7h2.4Z"/>
    </g>
    <line class="st0" x1="10" y1="36.9" x2="289.1" y2="36.9"/>
  </g>
</svg>